<?xml version="1.0"?>
<svg width="384" height="384" viewBox="0 0 384 384" xmlns="http://www.w3.org/2000/svg"
  xmlns:svg="http://www.w3.org/2000/svg">
  <defs>
    <radialGradient id="rad-grad">
      <stop offset="2%" stop-color="#fff" />
      <stop offset="20%" stop-color="#b6e2dc" />
      <stop offset="45%" stop-color="#6ec4c1" />
      <stop offset="85%" stop-color="#3d898f" />
    </radialGradient>
  </defs>
  <g stroke-linecap="round" stroke-linejoin="round">
    <g transform="translate(8 8) scale(0.958333)">
      <circle cx="192" cy="192" r="190" stroke="none" stroke-width="0" fill="url('#rad-grad')" />
      <g fill="#fff">
        <g stroke="#fff" stroke-opacity="0.1" stroke-width="0.5" opacity="0.9">
          <path fill-opacity="0.1"
            d="M 192 177 C 202 177 210 184 210 194 C 210 204 202 212 192 212 C 176 212 164 200 164 184 C 164 168 176 156 192 156 C 214 156 233 173 233 194 C 233 214 214 232 192 232 C 158 232 132 206 132 176 C 132 145 158 120 192 120 C 236 120 272 154.924 272 198 C 272 241 236 276 192 276 C 132 276 84 227 84 167 C 84 106 132 58 192 58 C 276 58 346 124 346 206 C 346 288 276 354 192 354 C 102 354 28 284 28 180 C 28 82 102 4 193 3 C 86.737 0 0 85.961 0 192 C 0 298.039 85.961 384 192 384 C 293.62 384 376 305.202 376 208 C 376 110.798 293.62 32 192 32 C 152 32 135 40 116 52 C 116 52 72 90 72 156 C 70 242 126 296 192 296 C 248 296 294 252 294 200 C 294 145 248 102 192 102 C 192 102 192 102 192 102 C 150 102 116 134 116 173 C 116 212 150 244 192 244 C 220 244 243 222 243 196 C 243 168 220 147 192 147 C 171 147 155 162 155 182 C 155 201 171 217 192 217 C 205 217 216 206 216 194 C 216 181 205 171 192 171 C 184 171 177 177 177 184 C 177 192 184 200 192 200" />
          <path fill-opacity="0.2"
            d="M 192 177 C 202 177 210 184 210 194 C 210 204 202 212 192 212 C 176 212 164 200 164 184 C 164 168 176 156 192 156 C 214 156 233 173 233 194 C 233 214 214 232 192 232 C 158 232 132 206 132 176 C 132 145 158 120 192 120 C 236 120 272 154.924 272 198 C 272 241 236 276 192 276 C 132 276 84 227 84 167 C 84 106 132 58 192 58 C 276 58 346 124 346 206 C 346 288 276 354 192 354 C 102 354 28 284 28 180 C 28 82 102 4 193 3 C 116 16 50 78 50 166 C 50 260 114.68 324 192 324 C 261.588 324 318 269.826 318 203 C 318 136.174 261.588 82 192 82 C 141.191 82 100 121.4 100 170 C 100 218.6 141.191 258 192 258 C 227.898 258 257 230.465 257 196.5 C 257 162.535 227.898 135 192 135 C 165.49 135 144 154.924 144 179.5 C 144 204.076 165.49 224 192 224 C 209.673 224 224 210.569 224 194 C 224 177.431 209.673 164 192 164 C 180.402 164 171 173.626 171 185.5 C 171 197.374 180.402 207 192 207" />
          <path fill-opacity="0.3"
            d="M 192 207 C 180.402 207 171 197.374 171 185.5 C 171 173.626 180.402 164 192 164 C 209.673 164 224 177.431 224 194 C 224 210.569 209.673 224 192 224 C 165.49 224 144 204.076 144 179.5 C 144 154.924 165.49 135 192 135 C 227.898 135 257 162.535 257 196.5 C 257 230.465 227.898 258 192 258 C 141.191 258 100 218.6 100 170 C 100 121.4 141.191 82 192 82 C 261.588 82 318 136.174 318 203 C 318 269.826 261.588 324 192 324 C 114.68 324 50 260 50 166 C 50 78 116 16 193 3 C  124 24 72 90 72 156 C 70 242 126 296 192 296 C 248 296 294 252 294 200 C 294 145 248 102 192 102 C 192 102 192 102 192 102 C 150 102 116 134 116 173 C 116 212 150 244 192 244 C 220 244 243 222 243 196 C 243 168 220 147 192 147 C 171 147 155 162 155 182 C 155 201 171 217 192 217 C 205 217 216 206 216 194 C 216 181 205 171 192 171 C 184 171 177 177 177 184 C 177 192 184 200 192 200" />
        </g>
        <circle cx="192" cy="192" r="192" fill-opacity="0.025" stroke="#f6fbfe" stroke-width="8" />
        <g stroke="none" stroke-width="0">
          <circle cx="192" cy="192" r="8" opacity="0.3" />
          <circle cx="192" cy="192" r="16" opacity="0.2" />
        </g>
      </g>
    </g>
  </g>
</svg>
